Coordinates
version=1
nRows=21
nColumns=38
inDegrees=no

Units are S.I. units (second, meters, Newtons, ...)
If the header above contains a line with 'inDegrees', this indicates whether rotational values are in degrees (yes) or radians (no).

endheader
time	pelvis_tilt	pelvis_list	pelvis_rotation	pelvis_tx	pelvis_ty	pelvis_tz	hip_flexion_r	hip_adduction_r	hip_rotation_r	knee_angle_r	ankle_angle_r	subtalar_angle_r	mtp_angle_r	hip_flexion_l	hip_adduction_l	hip_rotation_l	knee_angle_l	ankle_angle_l	subtalar_angle_l	mtp_angle_l	lumbar_extension	lumbar_bending	lumbar_rotation	arm_flex_r	arm_add_r	arm_rot_r	elbow_flex_r	pro_sup_r	wrist_flex_r	wrist_dev_r	arm_flex_l	arm_add_l	arm_rot_l	elbow_flex_l	pro_sup_l	wrist_flex_l	wrist_dev_l
1.57	1.52314	1.48021	0.168988	0.490059	1.60296	1.06242	-0.0122977	0.129035	-0.278176	0.168418	-0.173497	0	0	0.259538	-0.257438	-0.241984	0.946615	-0.167867	0	0	-0.180486	0.109443	-0.00391952	-0.117795	-0.25837	0.00300339	0.862614	1.5708	0	0	-0.124744	-0.275916	0.208103	0.706266	1.16356	0	0
1.58	1.52826	1.48372	0.156313	0.490419	1.61627	1.06389	-0.0325028	0.126514	-0.283383	0.157119	-0.182668	0	0	0.266571	-0.25946	-0.278125	0.900828	-0.17261	0	0	-0.180838	0.102886	0.00452316	-0.112047	-0.26529	0.0152407	0.876426	1.5708	0	0	-0.129816	-0.275773	0.213264	0.691884	1.15298	0	0
1.59	1.53706	1.48795	0.139122	0.490752	1.62952	1.06503	-0.0530438	0.123109	-0.285878	0.145945	-0.190314	0	0	0.271243	-0.258911	-0.31163	0.851076	-0.178102	0	0	-0.182007	0.0955189	0.0127284	-0.105215	-0.272696	0.0290341	0.890142	1.5708	0	0	-0.135723	-0.275316	0.215975	0.67931	1.14598	0	0
1.6	1.55856	1.49239	0.10933	0.490937	1.6427	1.06593	-0.0740138	0.119166	-0.286933	0.136261	-0.196537	0	0	0.273635	-0.255905	-0.342369	0.797377	-0.185056	0	0	-0.184581	0.0882174	0.0198988	-0.0969797	-0.281087	0.0448969	0.903468	1.5708	0	0	-0.142076	-0.274776	0.218035	0.667967	1.14377	0	0
1.61	1.5779	1.4963	0.0819697	0.491049	1.6558	1.06645	-0.0942464	0.115234	-0.28767	0.126962	-0.202042	0	0	0.274908	-0.250718	-0.369609	0.739152	-0.193614	0	0	-0.186885	0.0814716	0.0259651	-0.0872244	-0.290332	0.0631634	0.915451	1.5708	0	0	-0.149254	-0.273929	0.217907	0.658479	1.14251	0	0
1.62	1.59723	1.49971	0.0552097	0.49108	1.66887	1.06658	-0.114136	0.111606	-0.28737	0.117708	-0.206328	0	0	0.275433	-0.243726	-0.392442	0.677315	-0.203646	0	0	-0.18904	0.0752461	0.0306479	-0.0762724	-0.300699	0.0845121	0.926786	1.5708	0	0	-0.157073	-0.272486	0.214977	0.650191	1.14108	0	0
1.63	1.59494	1.50263	0.0502046	0.491084	1.68195	1.06624	-0.131756	0.108053	-0.286992	0.109803	-0.209091	0	0	0.276749	-0.234931	-0.410078	0.611934	-0.21323	0	0	-0.189215	0.0695093	0.0345139	-0.0644759	-0.311601	0.107802	0.936873	1.5708	0	0	-0.165218	-0.270408	0.21027	0.641914	1.13976	0	0
1.64	1.55363	1.50461	0.0837988	0.491005	1.69509	1.06528	-0.14615	0.104978	-0.285818	0.103143	-0.210044	0	0	0.280129	-0.225287	-0.422963	0.544963	-0.218572	0	0	-0.186183	0.0648688	0.0387067	-0.053583	-0.32118	0.127315	0.94651	1.5708	0	0	-0.173739	-0.267703	0.20523	0.633845	1.13848	0	0
1.65	1.51433	1.50587	0.115147	0.490874	1.70805	1.06398	-0.16079	0.102561	-0.281554	0.0959465	-0.20942	0	0	0.282022	-0.213884	-0.428165	0.473768	-0.22802	0	0	-0.184362	0.0613053	0.0432435	-0.0424751	-0.330093	0.144021	0.956484	1.5708	0	0	-0.181176	-0.264709	0.200627	0.626466	1.13353	0	0
1.66	1.45893	1.50538	0.162605	0.490694	1.72084	1.06221	-0.17289	0.101184	-0.276971	0.0912346	-0.207048	0	0	0.284313	-0.202137	-0.424809	0.399925	-0.231079	0	0	-0.181883	0.0597268	0.047649	-0.0305416	-0.3402	0.162183	0.966023	1.5708	0	0	-0.188436	-0.260648	0.193542	0.619689	1.13077	0	0
1.67	1.37569	1.50317	0.240391	0.490352	1.73381	1.05987	-0.181687	0.100863	-0.277297	0.0887135	-0.204039	0	0	0.288143	-0.189428	-0.411006	0.323778	-0.23135	0	0	-0.176271	0.059461	0.0496529	-0.019369	-0.349266	0.178589	0.974144	1.5708	0	0	-0.196196	-0.256582	0.185605	0.61323	1.12742	0	0
1.68	1.27537	1.49938	0.336275	0.489935	1.74682	1.05702	-0.188336	0.101267	-0.277706	0.0865968	-0.199501	0	0	0.29218	-0.175626	-0.382877	0.244548	-0.229559	0	0	-0.168326	0.0597924	0.0505596	-0.00833053	-0.357918	0.194855	0.980904	1.5708	0	0	-0.203901	-0.25179	0.17538	0.606433	1.12327	0	0
1.69	1.18252	1.49374	0.424265	0.489522	1.75987	1.05374	-0.193883	0.102531	-0.276444	0.0854059	-0.194039	0	0	0.296453	-0.164419	-0.350081	0.168858	-0.226352	0	0	-0.159749	0.0612701	0.0520831	0.00182899	-0.36561	0.208102	0.987316	1.5708	0	0	-0.211378	-0.246471	0.164091	0.600394	1.1182	0	0
1.7	1.10652	1.48674	0.495518	0.489016	1.77305	1.05012	-0.198383	0.104048	-0.276474	0.0869419	-0.187831	0	0	0.3001	-0.15571	-0.313699	0.0969643	-0.22317	0	0	-0.151014	0.0639735	0.0536968	0.0107399	-0.372422	0.218214	0.99337	1.5708	0	0	-0.21866	-0.241037	0.152924	0.595053	1.11343	0	0
1.71	1.03795	1.47813	0.560775	0.488377	1.78648	1.04615	-0.201323	0.106423	-0.279662	0.0902287	-0.181579	0	0	0.305585	-0.149838	-0.276935	0.0323718	-0.219803	0	0	-0.140548	0.067687	0.053713	0.018771	-0.378604	0.227543	0.998005	1.5708	0	0	-0.226243	-0.235925	0.142177	0.590029	1.10903	0	0
1.72	0.990524	1.47022	0.605585	0.487651	1.80021	1.04212	-0.205703	0.108449	-0.284395	0.0940609	-0.177814	0	0	0.314635	-0.147116	-0.25789	0	-0.215377	0	0	-0.131224	0.0710251	0.0531012	0.0262	-0.385505	0.237951	1.00219	1.5708	0	0	-0.233614	-0.231784	0.133306	0.585744	1.10518	0	0
1.73	0.959316	1.46435	0.632512	0.486992	1.81397	1.03826	-0.210215	0.108087	-0.288926	0.10329	-0.16334	0	0	0.325814	-0.145789	-0.25494	0	-0.194873	0	0	-0.125462	0.0729794	0.0562204	0.026825	-0.382195	0.222457	1.00779	1.5708	0	0	-0.237353	-0.231316	0.140153	0.581784	1.081	0	0
1.74	0.94895	1.46153	0.637077	0.48639	1.82777	1.03479	-0.217738	0.105637	-0.288982	0.11336	-0.158341	0	0	0.33289	-0.143907	-0.255486	0	-0.183159	0	0	-0.124821	0.0732192	0.0604204	0.0299843	-0.381911	0.214429	1.01224	1.5708	0	0	-0.240404	-0.227721	0.133772	0.577988	1.07432	0	0
1.75	0.944055	1.46038	0.637212	0.485669	1.84182	1.03159	-0.2257	0.101749	-0.289255	0.125931	-0.15513	0	0	0.33849	-0.14052	-0.255432	0	-0.170905	0	0	-0.125421	0.0720655	0.0636731	0.0321194	-0.379338	0.203335	1.01432	1.5708	0	0	-0.24255	-0.225035	0.128693	0.574054	1.06941	0	0
1.76	0.944992	1.4614	0.631784	0.484867	1.85606	1.02878	-0.234603	0.0959273	-0.288604	0.140113	-0.153943	0	0	0.342003	-0.135189	-0.254803	0	-0.160386	0	0	-0.127809	0.0690318	0.0668769	0.0337837	-0.37541	0.190955	1.01392	1.5708	0	0	-0.243462	-0.223209	0.125162	0.569821	1.06655	0	0
1.77	0.948757	1.46346	0.623971	0.483966	1.87049	1.02629	-0.244047	0.0894074	-0.284625	0.153853	-0.158117	0	0	0.344525	-0.128623	-0.25419	0	-0.162345	0	0	-0.131194	0.0651502	0.0692567	0.0368838	-0.375481	0.188191	1.01163	1.5708	0	0	-0.243957	-0.22167	0.121751	0.565725	1.0666	0	0
